<?xml version="1.0" encoding="UTF-8"?>
<svg id="Layer_1" xmlns="http://www.w3.org/2000/svg" version="1.1" viewBox="0 0 389.8 133">
  <!-- Generator: Adobe Illustrator 29.0.1, SVG Export Plug-In . SVG Version: 2.1.0 Build 192)  -->
  <defs>
    <style>
      .st0 {
        fill: #868a8c;
      }

      .st1 {
        fill: #4b9d33;
      }
    </style>
  </defs>
  <g>
    <path class="st1" d="M19.4,43.6l3.2,58.5-1.5,12.5h-10.2L2.7,43.6h16.7ZM18.3,100.4l20.6-56.8h17.5l-30.4,71h-10.6l2.9-14.2Z"/>
    <polygon class="st1" points="79.2 43.6 66.9 114.6 50.4 114.6 62.7 43.6 79.2 43.6"/>
    <path class="st1" d="M65.2,26.1c0-2.5.9-4.7,2.5-6.4,1.6-1.8,3.7-2.7,6.3-2.7,2.5,0,4.5.8,6.1,2.4,1.6,1.7,2.4,3.7,2.4,6.3s-.8,4.5-2.4,6.3c-1.6,1.8-3.7,2.7-6.3,2.7-2.5,0-4.5-.7-6.1-2.3-1.6-1.6-2.4-3.7-2.5-6.2Z"/>
    <path class="st1" d="M101.3,43.6l3.2,58.5-1.5,12.5h-10.2l-8.3-71h16.7ZM100.3,100.4l20.6-56.8h17.5l-30.4,71h-10.6l2.9-14.2Z"/>
    <path class="st1" d="M202.8,59.2l-9.6,55.4h-16.4l12.3-71h15.5l-1.8,15.6ZM221.6,43l-2.1,16.7c-1-.2-1.9-.3-2.9-.5-1-.1-1.9-.2-2.8-.2-2.3,0-4.3.4-6,1.2-1.7.8-3.1,2-4.3,3.5-1.2,1.5-2.1,3.2-2.9,5.1-.7,1.9-1.3,3.8-1.8,5.8l-3.2-.5c.4-2.8.9-6,1.7-9.7.8-3.7,1.9-7.2,3.4-10.6,1.5-3.4,3.5-6.2,6-8.4,2.5-2.2,5.6-3.3,9.4-3.2,1,0,1.9.2,2.8.3.9.2,1.8.4,2.7.6Z"/>
    <path class="st1" d="M143.1,88.1c0-.6.2-1.2,1.6-1.6,6.9-1.6,13.1-4,18.3-7.2,5.2-3.2,9.4-7,12.3-11.1,3-4.3,4.6-8.7,4.6-13s-1.1-7-3.2-9.4c-2.2-2.4-5.7-3.6-10.4-3.6s-8.5,1.6-12.9,4.6c-4.2,3-8.1,6.9-11.6,11.8-3.5,4.8-6.3,10.3-8.4,16.2-2.2,6-3.3,12.1-3.3,18.1s1.6,12.8,4.7,16.8c3.2,4.2,7.5,6.3,12.9,6.3s10.2-2.2,14.6-6.6c4.2-4.2,7.9-10.4,10.8-18.6.3-1,.3-1.9,0-2.7-.4-1.3-1.5-2-2.8-2s-2.9.9-3.4,2.4c-2,5.4-4.5,9.6-7.5,12.5-2.8,2.8-5.6,4.1-8.5,4.1s-4.2-1-5.5-3c-1.5-2.2-2.3-5.7-2.3-10.4v-1.9c0-.6,0-1.1.1-1.8ZM165,63.4c-1.8,3.6-4.5,6.8-8,9.7-3.3,2.8-7.5,4.9-12.5,6.3,1.3-5.2,3.2-10.1,5.6-14.7,2.5-4.7,5.2-8.5,8.1-11.4,2.6-2.6,5-4,7-4s2.5,0,2.5,3.7-.9,6.8-2.7,10.3Z"/>
    <path class="st1" d="M204,18.4v-1.5h7.3v1.5h-2.8v7.4h-1.7v-7.4h-2.8ZM212.7,25.8v-8.8h2.5l1.9,6.7h0l1.9-6.7h2.5v8.8h-1.6v-6.8h0c-.2.9-.5,1.8-.7,2.5l-1.3,4.3h-1.6l-1.3-4.3-.7-2.5h0v6.8h-1.6Z"/>
  </g>
  <g>
    <path class="st0" d="M294.1,79.6c-2.2,0-3.9-.8-5.3-2.3s-2.1-3.4-2.1-5.7.7-4.3,2-5.8c1.4-1.5,3.1-2.3,5.4-2.3s3.3.5,4.4,1.5c1.1,1,1.8,2.2,1.9,3.7h-3.1c-.1-.8-.5-1.4-1.1-1.9-.6-.5-1.3-.7-2.2-.7-1.4,0-2.4.5-3.1,1.5-.7,1-1.1,2.3-1.1,3.9s.4,2.9,1.2,3.9c.8,1,1.8,1.5,3.1,1.5s1.7-.2,2.3-.7c.6-.5,1-1.2,1.1-2h3.1c0,1.5-.7,2.7-1.7,3.6-1.2,1.1-2.7,1.6-4.7,1.6Z"/>
    <path class="st0" d="M311.7,79.3h-2.8v-1.3h0c-.4.5-.8.9-1.3,1.2s-1.1.4-1.8.4c-1.2,0-2.1-.4-2.8-1.1-.7-.7-1-1.7-1-2.9v-7.4h2.9v6.9c0,1.3.6,2,1.8,2s1.2-.2,1.6-.7c.4-.5.6-1.1.6-1.8v-6.4h2.9v11.1Z"/>
    <path class="st0" d="M313.7,79.3v-15.4h2.9v15.4h-2.9Z"/>
    <path class="st0" d="M317.9,70.2v-1.9h1.5v-3.4h2.9v3.4h1.9v1.9h-1.9v5.9c0,.7.4,1.1,1.1,1.1h.9s0,2.1,0,2.1c-.4,0-1.1,0-1.8,0s-1.6-.2-2.1-.6c-.6-.4-.9-1.1-.9-2v-6.5h-1.5Z"/>
    <path class="st0" d="M325.7,66.5v-2.6h2.9v2.6h-2.9ZM325.7,79.3v-11.1h2.9v11.1h-2.9Z"/>
    <path class="st0" d="M333.5,79.3l-3.8-11.1h3l1.8,5.7.5,1.8h0c.1-.5.3-1.1.5-1.8l1.8-5.7h2.9l-3.9,11.1h-2.8Z"/>
    <path class="st0" d="M347.7,79.3c-.1-.2-.3-.6-.3-1.2h0c-.3.5-.7.8-1.2,1.1-.5.3-1.2.4-2,.4s-2.1-.3-2.8-.9c-.7-.6-1.1-1.4-1.1-2.5s.4-1.9,1.2-2.5,1.9-.9,3.3-1.1c1-.1,1.7-.3,2.1-.4.4-.2.6-.4.6-.8s-.2-.7-.5-1c-.3-.2-.8-.4-1.4-.4-1.3,0-2,.5-2.1,1.6h-2.6c0-1,.5-1.9,1.3-2.6.8-.7,2-1,3.5-1,3.1,0,4.7,1.4,4.7,4.1v5.6c0,.8.1,1.3.4,1.5h0c0,.1-2.8.1-2.8.1ZM344.8,77.5c.8,0,1.4-.2,1.9-.6.5-.4.7-.9.7-1.5v-1.7c-.3.2-1,.4-2,.6-.8.2-1.4.4-1.8.6-.3.2-.5.6-.5,1.1,0,.9.6,1.4,1.7,1.4Z"/>
    <path class="st0" d="M354.9,68.2v1.5h0c.8-1.2,1.9-1.8,3.3-1.8s2.1.4,2.8,1.2,1.1,1.8,1.1,3v7.2h-2.9v-6.8c0-.6-.2-1.1-.5-1.5-.3-.4-.8-.6-1.4-.6s-1.2.2-1.6.7c-.4.5-.6,1.1-.6,1.8v6.3h-2.9v-11.1h2.9Z"/>
    <path class="st0" d="M368,79.6c-1.4,0-2.5-.5-3.4-1.6-.9-1.1-1.3-2.5-1.3-4.3s.4-3.1,1.3-4.2,2-1.6,3.4-1.6,2.4.5,3.1,1.6h0v-5.7h2.9v15.4h-2.8v-1.4h0c-.7,1.2-1.8,1.8-3.3,1.8ZM368.7,77.2c.9,0,1.5-.3,2-.9.5-.6.7-1.4.7-2.4,0-2.4-.9-3.5-2.6-3.5s-1.4.3-1.8.9c-.4.6-.6,1.5-.6,2.5s.2,1.9.6,2.5c.4.6,1,.9,1.7.9Z"/>
    <path class="st0" d="M385.5,77.9c-1.1,1.1-2.5,1.7-4.2,1.7s-3.1-.6-4.2-1.7c-1.1-1.1-1.6-2.5-1.6-4.2s.5-3.1,1.6-4.2c1.1-1.1,2.5-1.7,4.2-1.7s3.1.6,4.2,1.7c1.1,1.1,1.6,2.5,1.6,4.2s-.5,3.1-1.6,4.2ZM381.3,77.4c.9,0,1.6-.3,2.1-1,.5-.7.7-1.5.7-2.6s-.2-2-.7-2.6c-.5-.7-1.2-1-2.1-1s-1.6.3-2.1,1c-.5.7-.7,1.5-.7,2.6s.2,2,.7,2.6c.5.7,1.2,1,2.1,1Z"/>
    <path class="st0" d="M286.5,90.3v-2h1.5v-1c0-1.3.4-2.2,1.3-2.8.9-.5,2.1-.7,3.6-.6v2.3c-.7,0-1.2,0-1.5.2-.3.2-.4.5-.4,1.1v.8h2v2h-2v9h-2.9v-9h-1.5Z"/>
    <path class="st0" d="M304.1,99.3h-2.8v-1.3h0c-.4.5-.8.9-1.3,1.2s-1.1.4-1.8.4c-1.2,0-2.1-.4-2.8-1.1-.7-.7-1-1.7-1-2.9v-7.4h2.9v6.9c0,1.3.6,2,1.8,2s1.2-.2,1.6-.7c.4-.5.6-1.1.6-1.8v-6.4h2.9v11.1Z"/>
    <path class="st0" d="M305.3,90.2v-1.9h1.5v-3.4h2.9v3.4h1.9v1.9h-1.9v5.9c0,.7.4,1.1,1.1,1.1h.9s0,2.1,0,2.1c-.4,0-1.1,0-1.8,0s-1.6-.2-2.1-.6c-.6-.4-.9-1.1-.9-2v-6.5h-1.5Z"/>
    <path class="st0" d="M323,99.3h-2.8v-1.3h0c-.4.5-.8.9-1.3,1.2s-1.1.4-1.8.4c-1.2,0-2.1-.4-2.8-1.1-.7-.7-1-1.7-1-2.9v-7.4h2.9v6.9c0,1.3.6,2,1.8,2s1.2-.2,1.6-.7c.4-.5.6-1.1.6-1.8v-6.4h2.9v11.1Z"/>
    <path class="st0" d="M327.7,88.2v1.8h0c.3-.6.7-1.1,1.1-1.4s.9-.5,1.6-.5.5,0,.7,0v2.6h0c-1,0-1.8.1-2.4.6-.6.5-.9,1.4-.9,2.5v5.4h-2.9v-11.1h2.8Z"/>
    <path class="st0" d="M341.5,97.9c-1.1,1.1-2.5,1.7-4.2,1.7s-3.1-.6-4.2-1.7c-1.1-1.1-1.6-2.5-1.6-4.2s.5-3.1,1.6-4.2c1.1-1.1,2.5-1.7,4.2-1.7s3.1.6,4.2,1.7c1.1,1.1,1.6,2.5,1.6,4.2s-.5,3.1-1.6,4.2ZM337.3,97.4c.9,0,1.6-.3,2.1-1,.5-.7.7-1.5.7-2.6s-.2-2-.7-2.6c-.5-.7-1.2-1-2.1-1s-1.6.3-2.1,1c-.5.7-.7,1.5-.7,2.6s.2,2,.7,2.6c.5.7,1.2,1,2.1,1Z"/>
  </g>
  <path class="st0" d="M245.2,79.6c0-2.6.9-4.9,2.6-6.7,1.7-1.8,3.8-2.8,6.6-2.8,2.6,0,4.7.8,6.4,2.5,1.7,1.7,2.5,3.9,2.5,6.5s-.8,4.7-2.5,6.6c-1.7,1.8-3.8,2.8-6.6,2.8-2.6,0-4.7-.7-6.4-2.4-1.7-1.7-2.6-3.9-2.6-6.5Z"/>
</svg>